# xmcd CD database file
#
# Track frame offsets:
#	150
#	18509
#	28711
#	43601
#	53474
#	72196
#	89007
#	144071
#	166045
#	186849
#	201182
#	216197
#
# Disc length: 4433 seconds
#
# Revision: 1
# Processed by: cddbd v1.4PL0 Copyright (c) Steve Scherf et al.
# Submitted via: CDex 1.51
#
DISCID=9e114f0c
DTITLE=Lutin Bleu - Tout est relatif
DYEAR=1999
DGENRE=Alt Rock
TTITLE0=Super Tipee Store
TTITLE1=Fais Gaffe
TTITLE2=Ana Chérie
TTITLE3=C'est dégueulasse
TTITLE4=Sous le soleil de St Malo
TTITLE5=Martine
TTITLE6=La peinture (intro)
TTITLE7=La peinture
TTITLE8=Cécile
TTITLE9=Madame Peel
TTITLE10=In Ze Mood
TTITLE11=Bonus?
EXTD=YEAR: 1999
EXTT0=
EXTT1=
EXTT2=
EXTT3=
EXTT4=
EXTT5=
EXTT6=
EXTT7=
EXTT8=
EXTT9=
EXTT10=
EXTT11=
PLAYORDER=
